<svg width="100" height="100" viewBox="0 0 100 100" xmlns="http://www.w3.org/2000/svg">
  <defs>
    <pattern id="travel-pattern" patternUnits="userSpaceOnUse" width="100" height="100">
      <path d="M10 10L20 20M30 30L40 40M50 50L60 60M70 70L80 80M90 90L100 100" stroke="white" stroke-width="1" stroke-opacity="0.2"/>
      <path d="M10 90L20 80M30 70L40 60M50 50L60 40M70 30L80 20M90 10L100 0" stroke="white" stroke-width="1" stroke-opacity="0.2"/>
      <circle cx="20" cy="20" r="3" fill="white" fill-opacity="0.2"/>
      <circle cx="50" cy="50" r="3" fill="white" fill-opacity="0.2"/>
      <circle cx="80" cy="80" r="3" fill="white" fill-opacity="0.2"/>
      <path d="M25 75L35 65M45 55L55 45M65 35L75 25" stroke="white" stroke-width="1" stroke-opacity="0.2"/>
    </pattern>
  </defs>
  <rect width="100" height="100" fill="url(#travel-pattern)"/>
</svg> 